<svg width="686" height="399" viewBox="0 0 686 399" fill="none" xmlns="http://www.w3.org/2000/svg">
<path d="M240.463 239.8H270.799C272.847 239.8 274.554 240.483 275.919 241.848C277.284 243.213 277.967 244.92 277.967 246.968C277.967 248.931 277.284 250.595 275.919 251.96C274.554 253.24 272.847 253.88 270.799 253.88H240.463C238.415 253.88 236.708 253.197 235.343 251.832C233.978 250.467 233.295 248.76 233.295 246.712C233.295 244.749 233.978 243.128 235.343 241.848C236.708 240.483 238.415 239.8 240.463 239.8ZM254.159 223.8C256.378 223.8 258.17 224.568 259.535 226.104C260.986 227.555 261.711 229.389 261.711 231.608V288.568C261.711 289.763 261.924 290.744 262.351 291.512C262.863 292.28 263.503 292.835 264.271 293.176C265.124 293.517 266.02 293.688 266.959 293.688C267.983 293.688 268.922 293.517 269.775 293.176C270.628 292.749 271.61 292.536 272.719 292.536C273.914 292.536 274.98 293.091 275.919 294.2C276.943 295.309 277.455 296.845 277.455 298.808C277.455 301.197 276.132 303.16 273.487 304.696C270.927 306.232 268.154 307 265.167 307C263.375 307 261.37 306.872 259.151 306.616C257.018 306.275 254.97 305.549 253.007 304.44C251.13 303.245 249.551 301.453 248.271 299.064C246.991 296.675 246.351 293.389 246.351 289.208V231.608C246.351 229.389 247.076 227.555 248.527 226.104C250.063 224.568 251.94 223.8 254.159 223.8ZM299.75 307C297.531 307 295.697 306.275 294.246 304.824C292.795 303.288 292.07 301.411 292.07 299.192V246.328C292.07 244.109 292.795 242.275 294.246 240.824C295.697 239.288 297.531 238.52 299.75 238.52C301.969 238.52 303.803 239.288 305.254 240.824C306.705 242.275 307.43 244.109 307.43 246.328V258.36L306.534 249.784C307.473 247.736 308.667 245.944 310.118 244.408C311.654 242.787 313.361 241.464 315.238 240.44C317.115 239.331 319.121 238.52 321.254 238.008C323.387 237.496 325.521 237.24 327.654 237.24C330.214 237.24 332.347 237.965 334.054 239.416C335.846 240.867 336.742 242.573 336.742 244.536C336.742 247.352 336.017 249.4 334.566 250.68C333.115 251.875 331.537 252.472 329.83 252.472C328.209 252.472 326.715 252.173 325.35 251.576C324.07 250.979 322.577 250.68 320.87 250.68C319.334 250.68 317.755 251.064 316.134 251.832C314.598 252.515 313.147 253.624 311.782 255.16C310.502 256.696 309.435 258.616 308.582 260.92C307.814 263.139 307.43 265.784 307.43 268.856V299.192C307.43 301.411 306.705 303.288 305.254 304.824C303.803 306.275 301.969 307 299.75 307ZM402.134 237.24C404.353 237.24 406.187 237.965 407.638 239.416C409.089 240.867 409.814 242.744 409.814 245.048V299.192C409.814 301.411 409.089 303.288 407.638 304.824C406.187 306.275 404.353 307 402.134 307C399.915 307 398.081 306.275 396.63 304.824C395.179 303.288 394.454 301.411 394.454 299.192V292.92L397.27 294.072C397.27 295.181 396.673 296.547 395.478 298.168C394.283 299.704 392.662 301.24 390.614 302.776C388.566 304.312 386.134 305.635 383.318 306.744C380.587 307.768 377.601 308.28 374.358 308.28C368.47 308.28 363.137 306.787 358.358 303.8C353.579 300.728 349.782 296.547 346.966 291.256C344.235 285.88 342.87 279.736 342.87 272.824C342.87 265.827 344.235 259.683 346.966 254.392C349.782 249.016 353.537 244.835 358.23 241.848C362.923 238.776 368.129 237.24 373.846 237.24C377.515 237.24 380.886 237.795 383.958 238.904C387.03 240.013 389.675 241.421 391.894 243.128C394.198 244.835 395.947 246.584 397.142 248.376C398.422 250.083 399.062 251.533 399.062 252.728L394.454 254.392V245.048C394.454 242.829 395.179 240.995 396.63 239.544C398.081 238.008 399.915 237.24 402.134 237.24ZM376.278 294.2C380.033 294.2 383.318 293.261 386.134 291.384C388.95 289.507 391.126 286.947 392.662 283.704C394.283 280.461 395.094 276.835 395.094 272.824C395.094 268.728 394.283 265.059 392.662 261.816C391.126 258.573 388.95 256.013 386.134 254.136C383.318 252.259 380.033 251.32 376.278 251.32C372.609 251.32 369.366 252.259 366.55 254.136C363.734 256.013 361.515 258.573 359.894 261.816C358.358 265.059 357.59 268.728 357.59 272.824C357.59 276.835 358.358 280.461 359.894 283.704C361.515 286.947 363.734 289.507 366.55 291.384C369.366 293.261 372.609 294.2 376.278 294.2ZM456.909 237.24C461.773 237.24 465.997 237.752 469.581 238.776C473.25 239.8 476.066 241.251 478.029 243.128C480.077 244.92 481.101 247.096 481.101 249.656C481.101 251.363 480.589 252.984 479.565 254.52C478.541 255.971 477.048 256.696 475.085 256.696C473.72 256.696 472.568 256.525 471.629 256.184C470.776 255.757 470.008 255.245 469.325 254.648C468.642 254.051 467.832 253.496 466.893 252.984C466.04 252.472 464.717 252.088 462.925 251.832C461.218 251.491 459.938 251.32 459.085 251.32C454.733 251.32 451.021 252.259 447.949 254.136C444.962 256.013 442.658 258.573 441.037 261.816C439.416 264.973 438.605 268.643 438.605 272.824C438.605 276.92 439.416 280.589 441.037 283.832C442.744 286.989 445.048 289.507 447.949 291.384C450.936 293.261 454.349 294.2 458.189 294.2C460.322 294.2 462.157 294.072 463.693 293.816C465.229 293.56 466.509 293.176 467.533 292.664C468.728 291.981 469.794 291.256 470.733 290.488C471.672 289.72 473.08 289.336 474.957 289.336C477.176 289.336 478.882 290.061 480.077 291.512C481.272 292.877 481.869 294.584 481.869 296.632C481.869 298.765 480.674 300.728 478.285 302.52C475.896 304.227 472.738 305.635 468.813 306.744C464.973 307.768 460.792 308.28 456.269 308.28C449.528 308.28 443.682 306.744 438.733 303.672C433.784 300.515 429.944 296.248 427.213 290.872C424.568 285.496 423.245 279.48 423.245 272.824C423.245 265.827 424.653 259.683 427.469 254.392C430.37 249.016 434.338 244.835 439.373 241.848C444.493 238.776 450.338 237.24 456.909 237.24ZM501.905 307C499.686 307 497.852 306.275 496.401 304.824C494.95 303.288 494.225 301.411 494.225 299.192V220.088C494.225 217.869 494.95 216.035 496.401 214.584C497.852 213.048 499.686 212.28 501.905 212.28C504.124 212.28 505.958 213.048 507.409 214.584C508.86 216.035 509.585 217.869 509.585 220.088V299.192C509.585 301.411 508.86 303.288 507.409 304.824C505.958 306.275 504.124 307 501.905 307ZM542.609 238.52C544.572 238.52 546.278 239.331 547.729 240.952C549.18 242.573 549.905 244.152 549.905 245.688C549.905 247.736 548.881 249.656 546.833 251.448L508.305 286.904L507.665 269.24L536.977 240.952C538.598 239.331 540.476 238.52 542.609 238.52ZM544.529 306.872C542.31 306.872 540.433 306.019 538.897 304.312L515.217 279.224L526.865 268.472L549.905 293.56C551.526 295.267 552.337 297.187 552.337 299.32C552.337 301.539 551.441 303.373 549.649 304.824C547.942 306.189 546.236 306.872 544.529 306.872ZM595.201 308.28C587.948 308.28 581.633 306.787 576.257 303.8C570.966 300.728 566.87 296.589 563.969 291.384C561.153 286.179 559.745 280.291 559.745 273.72C559.745 266.04 561.281 259.512 564.353 254.136C567.51 248.675 571.606 244.493 576.641 241.592C581.676 238.691 587.009 237.24 592.641 237.24C596.993 237.24 601.089 238.136 604.929 239.928C608.854 241.72 612.31 244.195 615.297 247.352C618.284 250.424 620.63 254.008 622.337 258.104C624.129 262.2 625.025 266.552 625.025 271.16C624.94 273.208 624.129 274.872 622.593 276.152C621.057 277.432 619.265 278.072 617.217 278.072H568.321L564.481 265.272H611.457L608.641 267.832V264.376C608.47 261.901 607.574 259.683 605.953 257.72C604.417 255.757 602.454 254.221 600.065 253.112C597.761 251.917 595.286 251.32 592.641 251.32C590.081 251.32 587.692 251.661 585.473 252.344C583.254 253.027 581.334 254.179 579.713 255.8C578.092 257.421 576.812 259.597 575.873 262.328C574.934 265.059 574.465 268.515 574.465 272.696C574.465 277.304 575.404 281.229 577.281 284.472C579.244 287.629 581.718 290.061 584.705 291.768C587.777 293.389 591.02 294.2 594.433 294.2C597.59 294.2 600.108 293.944 601.985 293.432C603.862 292.92 605.356 292.323 606.465 291.64C607.66 290.872 608.726 290.232 609.665 289.72C611.201 288.952 612.652 288.568 614.017 288.568C615.894 288.568 617.43 289.208 618.625 290.488C619.905 291.768 620.545 293.261 620.545 294.968C620.545 297.272 619.35 299.363 616.961 301.24C614.742 303.117 611.628 304.781 607.617 306.232C603.606 307.597 599.468 308.28 595.201 308.28ZM646.125 307C643.906 307 642.072 306.275 640.621 304.824C639.17 303.288 638.445 301.411 638.445 299.192V246.328C638.445 244.109 639.17 242.275 640.621 240.824C642.072 239.288 643.906 238.52 646.125 238.52C648.344 238.52 650.178 239.288 651.629 240.824C653.08 242.275 653.805 244.109 653.805 246.328V258.36L652.909 249.784C653.848 247.736 655.042 245.944 656.493 244.408C658.029 242.787 659.736 241.464 661.613 240.44C663.49 239.331 665.496 238.52 667.629 238.008C669.762 237.496 671.896 237.24 674.029 237.24C676.589 237.24 678.722 237.965 680.429 239.416C682.221 240.867 683.117 242.573 683.117 244.536C683.117 247.352 682.392 249.4 680.941 250.68C679.49 251.875 677.912 252.472 676.205 252.472C674.584 252.472 673.09 252.173 671.725 251.576C670.445 250.979 668.952 250.68 667.245 250.68C665.709 250.68 664.13 251.064 662.509 251.832C660.973 252.515 659.522 253.624 658.157 255.16C656.877 256.696 655.81 258.616 654.957 260.92C654.189 263.139 653.805 265.784 653.805 268.856V299.192C653.805 301.411 653.08 303.288 651.629 304.824C650.178 306.275 648.344 307 646.125 307Z" fill="#DAE9FD"/>
<g clip-path="url(#clip0_145_52)">
<path d="M268.378 15.7496C249.369 15.7496 230.858 17.8381 212.929 21.6099L212.099 20.628C211.435 21.1657 210.687 21.7034 210.023 22.2411C149.926 35.6061 97.3818 68.0482 60.0283 104.815C32.063 132.403 12.3984 162.405 4.38817 189.681C0.387195 203.241 -0.708508 216.255 1.98925 228.022C4.6953 239.712 11.4687 250.076 22.2681 257.246C27.4643 260.675 33.8061 261.22 39.9487 260.519C46.083 259.818 52.4746 257.869 59.3643 255.142C73.2266 249.843 89.1641 241.504 106.347 233.166C138.969 217.346 175.824 201.994 206.786 205.111L205.79 204.643C200.062 201.604 196.327 196.617 194.169 190.694C181.884 191.084 169.516 193.499 157.313 197.006C153.329 188.122 150.258 179.55 148.266 171.056C162.875 165.523 177.899 160.613 193.339 156.249C194.335 151.184 195.663 145.884 197.323 140.429C179.643 145.183 162.543 150.638 145.941 156.795C144.696 144.092 146.024 131.545 150.092 118.999C171.674 110.972 193.588 103.958 215.502 98.581C217.079 95.6976 218.822 92.7363 220.565 89.8529C222.226 87.1254 223.886 84.3978 225.629 81.8262C202.636 86.7357 179.975 93.3598 157.562 101.153C162.792 91.2557 169.848 81.1248 178.896 70.7835C200.229 66.2169 221.562 63.0997 239.906 61.8918C244.14 56.6237 248.373 51.7141 252.689 47.2176C235.839 47.3579 216.332 49.5243 196.078 53.0779C202.304 47.2254 209.193 41.2871 216.747 35.2554C233.432 31.7563 250.697 29.8159 268.378 29.7925C269.623 29.7925 270.868 29.7925 272.03 29.8704C279.501 24.3686 286.889 20.2461 294.027 17.9082C294.774 17.6745 295.521 17.464 296.269 17.2692C286.889 16.2639 277.509 15.7808 268.378 15.7808V15.7496ZM320.673 23.5737C316.688 23.4958 312.538 24.2439 308.471 25.5531C301.913 27.6806 295.272 31.2966 288.549 36.0737C285.478 37.8894 282.323 40.0792 279.003 42.6665C264.228 54.2313 247.626 73.363 233.598 96.7107C219.486 120.09 210.604 143.235 207.616 161.159C206.952 165.133 206.62 168.874 206.454 172.225C205.624 180.096 205.79 187.343 207.201 193.655C208.446 199.032 210.688 204.02 214.34 207.838L112.738 376.4L125.687 383.258L227.289 214.696C232.685 215.631 238.412 214.93 243.891 213.138C251.942 210.566 260.16 205.734 268.544 199.188C285.229 186.018 302.577 165.834 317.353 141.209C332.211 116.661 341.757 92.2687 345.16 72.0538C346.82 62.0086 346.986 52.8753 345.243 45.0434C343.417 37.2114 339.35 30.2133 332.211 26.4104C328.642 24.5167 324.74 23.6439 320.673 23.5737ZM320.258 37.5543C322.084 37.5543 323.661 37.9673 324.823 38.622C327.313 39.9234 329.389 42.6431 330.634 47.9735C331.796 53.3351 331.796 60.941 330.302 69.9107C327.396 87.7488 318.432 110.972 304.403 134.351C290.292 157.652 273.773 176.822 258.915 188.434C251.527 194.201 244.555 198.097 239.076 199.89C233.515 201.682 230.028 201.37 227.538 200.046C225.131 198.799 222.973 196.071 221.728 190.694C220.565 185.395 220.565 177.758 222.06 168.796C225.048 150.95 233.93 127.727 248.041 104.426C262.069 81.0469 278.671 61.9073 293.446 50.3348C300.917 44.5134 307.807 40.5936 313.285 38.7622C316.107 37.905 318.349 37.5387 320.258 37.5543ZM184.54 44.116C179.56 48.8229 174.911 53.5065 170.678 58.1823C156.981 61.2605 143.451 64.8453 130.751 68.8431C147.436 59.0707 165.448 50.6231 184.54 44.116ZM155.819 76.3321C148.183 86.9695 142.289 97.6459 138.139 108.322C117.636 116.115 97.5478 124.843 77.875 133.961C81.5273 122.895 86.8398 111.05 94.0615 98.2693C110.331 90.3205 132.411 82.6055 155.819 76.3321ZM68.3291 116.972C64.6768 125.779 61.9375 134.273 60.0283 142.455C52.8066 145.962 45.668 149.469 38.6704 152.976C46.6641 140.975 56.708 128.818 68.3291 116.972ZM132.992 125.545C130.336 137.78 130.004 150.015 131.664 162.405C111.576 170.51 92.3184 179.55 73.5586 189.525C72.3965 183.992 71.6494 178.225 71.5664 172.225C71.4834 165.756 71.9814 158.977 73.3096 151.885C92.7334 142.533 112.738 133.649 132.992 125.545ZM57.123 159.678C56.708 164.042 56.542 168.328 56.625 172.458C56.791 181.031 58.0361 189.135 60.1113 196.928C45.1699 205.345 30.5771 214.385 16.3413 223.814C14.6396 215.32 15.4199 204.877 18.7983 193.344C20.4668 187.655 22.7744 181.732 25.6714 175.654C35.9893 170.276 46.498 164.977 57.123 159.678ZM134.403 176.511C136.479 184.849 139.467 193.188 143.285 201.604C128.012 207.137 113.236 214.073 99.457 220.697C96.3857 222.178 93.3975 223.658 90.4922 225.139C85.2627 218.203 81.0293 211.034 77.958 203.396C96.1367 193.499 114.896 184.537 134.403 176.511ZM65.0088 210.566C68.2461 217.969 72.3135 224.983 77.1279 231.607C68.4951 235.815 60.6094 239.556 53.7197 242.205C47.4941 244.621 42.0737 246.18 38.1142 246.647C34.1548 247.115 32.0796 246.57 30.8843 245.712C27.207 243.296 24.2685 240.491 21.9775 237.296C35.9809 227.866 50.2334 218.904 65.0088 210.566Z" fill="#DAE9FD"/>
</g>
<path d="M325.255 189.12C328.242 189.12 330.909 189.888 333.255 191.424C335.645 192.917 337.522 194.987 338.887 197.632C340.295 200.277 340.999 203.349 340.999 206.848C340.999 210.347 340.295 213.44 338.887 216.128C337.522 218.773 335.666 220.864 333.319 222.4C331.015 223.893 328.413 224.64 325.511 224.64C323.805 224.64 322.205 224.363 320.711 223.808C319.218 223.253 317.895 222.549 316.743 221.696C315.634 220.843 314.759 219.989 314.119 219.136C313.522 218.24 313.223 217.493 313.223 216.896L315.207 216.064V220.736C315.207 221.845 314.845 222.784 314.119 223.552C313.394 224.277 312.477 224.64 311.367 224.64C310.258 224.64 309.341 224.277 308.615 223.552C307.89 222.827 307.527 221.888 307.527 220.736V180.544C307.527 179.435 307.89 178.517 308.615 177.792C309.341 177.024 310.258 176.64 311.367 176.64C312.477 176.64 313.394 177.024 314.119 177.792C314.845 178.517 315.207 179.435 315.207 180.544V196.8L314.119 196.224C314.119 195.669 314.418 195.008 315.015 194.24C315.613 193.429 316.423 192.64 317.447 191.872C318.471 191.061 319.645 190.4 320.967 189.888C322.333 189.376 323.762 189.12 325.255 189.12ZM324.295 196.16C322.418 196.16 320.775 196.629 319.367 197.568C317.959 198.507 316.85 199.787 316.039 201.408C315.271 202.987 314.887 204.8 314.887 206.848C314.887 208.853 315.271 210.688 316.039 212.352C316.85 213.973 317.959 215.253 319.367 216.192C320.775 217.131 322.418 217.6 324.295 217.6C326.173 217.6 327.794 217.131 329.159 216.192C330.567 215.253 331.655 213.973 332.423 212.352C333.234 210.688 333.639 208.853 333.639 206.848C333.639 204.8 333.234 202.987 332.423 201.408C331.655 199.787 330.567 198.507 329.159 197.568C327.794 196.629 326.173 196.16 324.295 196.16ZM373.123 189.76C374.232 189.76 375.15 190.144 375.875 190.912C376.6 191.637 376.963 192.555 376.963 193.664V209.92C376.963 214.443 375.704 218.027 373.187 220.672C370.67 223.317 367.043 224.64 362.307 224.64C357.571 224.64 353.944 223.317 351.427 220.672C348.952 218.027 347.715 214.443 347.715 209.92V193.664C347.715 192.555 348.078 191.637 348.803 190.912C349.528 190.144 350.446 189.76 351.555 189.76C352.664 189.76 353.582 190.144 354.307 190.912C355.032 191.637 355.395 192.555 355.395 193.664V209.92C355.395 212.523 355.971 214.464 357.123 215.744C358.275 216.981 360.003 217.6 362.307 217.6C364.654 217.6 366.403 216.981 367.555 215.744C368.707 214.464 369.283 212.523 369.283 209.92V193.664C369.283 192.555 369.646 191.637 370.371 190.912C371.096 190.144 372.014 189.76 373.123 189.76ZM398.86 189.12C400.652 189.12 402.295 189.397 403.788 189.952C405.282 190.507 406.562 191.211 407.628 192.064C408.738 192.917 409.591 193.792 410.188 194.688C410.828 195.541 411.148 196.267 411.148 196.864L409.484 197.696V193.024C409.484 191.915 409.847 190.997 410.572 190.272C411.298 189.504 412.215 189.12 413.324 189.12C414.434 189.12 415.351 189.483 416.076 190.208C416.802 190.933 417.164 191.872 417.164 193.024V221.504C417.164 225.216 416.354 228.181 414.732 230.4C413.154 232.661 411.063 234.283 408.46 235.264C405.858 236.288 403.063 236.8 400.076 236.8C399.223 236.8 398.114 236.693 396.748 236.48C395.383 236.267 394.082 236.011 392.844 235.712C391.607 235.413 390.668 235.136 390.028 234.88C388.748 234.325 387.852 233.621 387.34 232.768C386.871 231.957 386.786 231.083 387.084 230.144C387.468 228.907 388.087 228.053 388.94 227.584C389.794 227.157 390.69 227.115 391.628 227.456C392.055 227.584 392.759 227.84 393.74 228.224C394.722 228.608 395.788 228.949 396.94 229.248C398.135 229.589 399.18 229.76 400.076 229.76C403.276 229.76 405.644 229.12 407.18 227.84C408.716 226.56 409.484 224.789 409.484 222.528V216.96L410.252 217.536C410.252 218.091 409.954 218.773 409.356 219.584C408.802 220.352 408.012 221.12 406.988 221.888C406.007 222.656 404.834 223.317 403.468 223.872C402.103 224.384 400.652 224.64 399.116 224.64C396.087 224.64 393.356 223.893 390.924 222.4C388.492 220.864 386.572 218.773 385.164 216.128C383.756 213.44 383.052 210.368 383.052 206.912C383.052 203.413 383.756 200.341 385.164 197.696C386.572 195.008 388.471 192.917 390.86 191.424C393.25 189.888 395.916 189.12 398.86 189.12ZM400.076 196.16C398.156 196.16 396.471 196.629 395.02 197.568C393.57 198.507 392.439 199.787 391.628 201.408C390.818 203.029 390.412 204.864 390.412 206.912C390.412 208.917 390.818 210.731 391.628 212.352C392.439 213.973 393.57 215.253 395.02 216.192C396.471 217.131 398.156 217.6 400.076 217.6C402.039 217.6 403.746 217.131 405.196 216.192C406.647 215.253 407.778 213.973 408.588 212.352C409.399 210.731 409.804 208.917 409.804 206.912C409.804 204.864 409.399 203.029 408.588 201.408C407.778 199.787 406.647 198.507 405.196 197.568C403.746 196.629 402.039 196.16 400.076 196.16Z" fill="#DAE9FD"/>
<defs>
<clipPath id="clip0_145_52">
<rect width="425" height="399" fill="white" transform="translate(-39)"/>
</clipPath>
</defs>
</svg>
